HIERARCHY
ROOT Hips
{
	OFFSET 0.000000 0.000000 0.000000 
	CHANNELS 6 Xposition Yposition Zposition Zrotation Yrotation Xrotation
	JOINT LeftUpLeg
	{
		OFFSET 1.363060 -1.794630 0.839290 
		CHANNELS 3 Zrotation Yrotation Xrotation
		JOINT LeftLeg
		{
			OFFSET 2.448110 -6.726130 0.000000 
			CHANNELS 3 Zrotation Yrotation Xrotation
			JOINT LeftFoot
			{
				OFFSET 2.562200 -7.039590 0.000000 
				CHANNELS 3 Zrotation Yrotation Xrotation
				JOINT LeftToeBase
				{
					OFFSET 0.157640 -0.433110 2.322550 
					CHANNELS 3 Zrotation Yrotation Xrotation
					End Site
					{
						OFFSET 0.000000 0.000000 0.000000 
					}
				}
			}
		}
	}
	JOINT RightUpLeg
	{
		OFFSET -1.305520 -1.794630 0.839290 
		CHANNELS 3 Zrotation Yrotation Xrotation
		JOINT RightLeg
		{
			OFFSET -2.542530 -6.985550 0.000000 
			CHANNELS 3 Zrotation Yrotation Xrotation
			JOINT RightFoot
			{
				OFFSET -2.568260 -7.056230 0.000000 
				CHANNELS 3 Zrotation Yrotation Xrotation
				JOINT RightToeBase
				{
					OFFSET -0.164730 -0.452590 2.363150 
					CHANNELS 3 Zrotation Yrotation Xrotation
					End Site
					{
						OFFSET 0.000000 0.000000 0.000000 
					}
				}
			}
		}
	}
	JOINT Spine
	{
		OFFSET 0.028270 2.035590 -0.193380 
		CHANNELS 3 Zrotation Yrotation Xrotation
		JOINT Spine1
		{
			OFFSET 0.056720 2.048850 -0.042750 
			CHANNELS 3 Zrotation Yrotation Xrotation
			JOINT Neck1
			{
				OFFSET -0.054170 1.746240 0.172020 
				CHANNELS 3 Zrotation Yrotation Xrotation
				JOINT Head
				{
					OFFSET 0.104070 1.761360 -0.123970 
					CHANNELS 3 Zrotation Yrotation Xrotation
					End Site
					{
						OFFSET 0.000000 0.000000 0.000000 
					}
				}
			}
			JOINT LeftArm
			{
				OFFSET 3.362410 1.200890 -0.311210 
				CHANNELS 3 Zrotation Yrotation Xrotation
				JOINT LeftForeArm
				{
					OFFSET 4.983000 -0.000000 -0.000000 
					CHANNELS 3 Zrotation Yrotation Xrotation
					JOINT LeftHand
					{
						OFFSET 3.483560 -0.000000 -0.000000 
						CHANNELS 3 Zrotation Yrotation Xrotation
						JOINT LeftHandIndex1
						{
							OFFSET 0.715260 -0.000000 -0.000000 
							CHANNELS 3 Zrotation Yrotation Xrotation
							End Site
							{
								OFFSET 0.000000 0.000000 0.000000 
							}
						}
					}
				}
			}
			JOINT RightArm
			{
				OFFSET -3.136600 1.374050 -0.404650 
				CHANNELS 3 Zrotation Yrotation Xrotation
				JOINT RightForeArm
				{
					OFFSET -5.241900 -0.000000 -0.000000 
					CHANNELS 3 Zrotation Yrotation Xrotation
					JOINT RightHand
					{
						OFFSET -3.444170 -0.000000 -0.000000 
						CHANNELS 3 Zrotation Yrotation Xrotation
						JOINT RightHandIndex1
						{
							OFFSET -0.622530 -0.000000 -0.000000 
							CHANNELS 3 Zrotation Yrotation Xrotation
							End Site
							{
								OFFSET 0.000000 0.000000 0.000000 
							}
						}
					}
				}
			}
		}
	}
}
MOTION
Frames: 16
Frame Time: 0.041667
7.757426 18.146263 8.572151 177.696535 -78.790219 -173.925676 -17.653990 -6.870211 -14.142134 0.445883 6.339504 22.353577 -2.459447 10.199584 -6.590628 0.051600 -1.465400 -4.030300 12.315886 22.254018 -15.392148 -3.834196 -9.711618 34.310057 2.168884 -8.871992 -3.383044 -0.075400 1.771100 -4.873500 -13.046302 3.286550 13.647979 2.928306 1.840397 -8.500343 10.627092 -3.675616 20.042206 3.974600 -1.298800 6.381300 -75.436972 5.897353 11.956250 10.915010 -17.196790 -1.711335 -0.825813 -1.636041 1.816918 -7.125000 0.000000 0.000000 76.163614 -3.124954 23.550310 -20.034609 26.007408 -6.108994 1.120320 0.711962 3.870876 7.125000 0.000000 0.000000 
7.775498 18.141793 8.580507 -178.746851 -78.498309 -177.379707 -16.993925 -6.683112 -14.734450 0.545682 6.568511 22.954332 -2.421027 10.096896 -6.772196 0.055100 -1.514600 -4.166000 12.969901 22.700565 -15.910662 -4.004175 -9.862195 34.988229 2.159517 -8.820874 -2.746847 -0.096100 1.999100 -5.503200 -12.471769 3.104206 13.839992 2.728366 1.754549 -8.554290 10.929691 -3.915396 20.017801 4.054200 -1.402100 6.402200 -75.315956 5.958958 12.262569 10.946658 -17.258544 -1.725896 -0.801866 -1.639585 1.541764 -7.125000 0.000000 0.000000 76.107770 -2.965904 23.451391 -20.272133 26.292599 -6.240954 1.115879 0.772680 3.397428 7.125000 0.000000 0.000000 
7.782300 18.136838 8.584685 -177.565662 -78.320873 -178.618612 -16.780193 -6.416340 -14.854268 0.555601 6.595763 23.008538 -2.403710 10.022444 -6.674843 0.056600 -1.534600 -4.221200 13.188108 23.028208 -16.410494 -4.233743 -10.118216 35.964196 2.087851 -8.597095 -2.293149 -0.125600 2.285000 -6.294000 -12.247157 2.946773 14.079704 2.723883 1.670325 -8.529166 11.249220 -4.180053 19.573716 4.120700 -1.526700 6.293300 -75.157663 6.042967 12.947705 11.023234 -17.381404 -1.757014 -0.759070 -1.655447 0.979328 -7.125000 0.000000 0.000000 76.145912 -2.928494 23.091078 -20.554659 26.635096 -6.394548 1.129123 0.825497 3.158101 7.125000 0.000000 0.000000 
7.786769 18.129259 8.595082 -179.400083 -78.019958 -177.063950 -17.262854 -6.161297 -14.700688 0.578247 6.599892 23.107029 -2.378454 9.983318 -6.903637 0.052800 -1.483300 -4.079600 12.652555 23.301177 -16.899286 -4.459574 -10.404672 36.947573 1.935722 -8.110567 -1.756332 -0.117500 2.209800 -6.085800 -12.465630 2.877796 14.385127 2.908826 1.619969 -8.538787 11.451149 -4.420951 19.076285 4.154400 -1.647000 6.179600 -75.050880 5.991219 13.384320 11.019856 -17.380631 -1.758893 -0.754246 -1.651642 0.677444 -7.125000 0.000000 0.000000 76.164277 -2.864161 22.538079 -20.818671 26.976039 -6.557011 1.115781 0.836549 3.226325 7.125000 0.000000 0.000000 
7.798721 18.117599 8.611211 176.629716 -77.604616 -173.473845 -18.272471 -5.896198 -14.384914 0.584060 6.536797 23.069774 -2.392826 10.083347 -7.130184 0.052300 -1.475200 -4.057300 11.511202 23.514087 -17.538138 -4.697726 -10.733094 37.988287 1.752746 -7.523917 -1.046851 -0.104000 2.079100 -5.724400 -13.038904 2.822340 14.643279 3.212817 1.571310 -8.643064 11.729431 -4.633503 18.752448 4.231600 -1.746700 6.129600 -74.988812 5.840885 13.404407 10.956521 -17.295173 -1.738800 -0.773546 -1.649362 0.912220 -7.125000 0.000000 0.000000 76.190638 -2.736541 22.097121 -21.084876 27.316587 -6.720561 1.107052 0.864510 3.321807 7.125000 0.000000 0.000000 
7.809700 18.106717 8.626854 174.189052 -77.338131 -171.313367 -18.936492 -5.761296 -14.111035 0.573087 6.461228 22.948731 -2.418205 10.187520 -7.211988 0.049300 -1.433000 -3.941100 10.719704 23.698355 -18.186833 -4.939139 -11.040382 39.021527 1.593048 -7.015903 -0.429841 -0.096700 2.005100 -5.519700 -13.327222 2.623413 14.926420 3.399807 1.453096 -8.690288 12.159082 -4.847013 18.700487 4.366900 -1.832500 6.173200 -74.992724 5.735929 13.417445 10.937146 -17.275514 -1.734611 -0.773260 -1.653988 1.061195 -7.125000 0.000000 0.000000 76.153062 -2.537992 21.760573 -21.331860 27.623584 -6.874994 1.093540 0.882055 3.277168 7.125000 0.000000 0.000000 
7.817765 18.100109 8.639583 173.509513 -77.152387 -170.863068 -19.175378 -5.589985 -13.901280 0.553804 6.395557 22.797170 -2.467431 10.340007 -7.165546 0.051200 -1.460600 -4.017100 10.393367 23.989578 -18.705039 -5.184192 -11.311859 40.027761 1.491790 -6.698405 0.119519 -0.093800 1.974900 -5.436400 -13.268192 2.386077 15.276147 3.507310 1.321261 -8.703164 12.494311 -5.035416 18.615903 4.468400 -1.909500 6.205200 -74.988750 5.622870 13.592284 10.870195 -17.176427 -1.713408 -0.783725 -1.649107 1.041493 -7.125000 0.000000 0.000000 76.079931 -2.371929 21.290946 -21.603199 27.971657 -7.064176 1.044101 0.879760 2.959820 7.125000 0.000000 0.000000 
7.827481 18.094474 8.648522 173.004187 -76.901143 -170.499301 -19.372371 -5.318415 -13.807161 0.533118 6.336010 22.652743 -2.471332 10.346058 -7.126155 0.051300 -1.461000 -4.018200 10.079757 24.386700 -19.275555 -5.423807 -11.566663 40.989449 1.409240 -6.443704 0.726227 -0.093500 1.972100 -5.428400 -13.159006 2.181092 15.474158 3.693190 1.223819 -8.751476 12.826711 -5.221093 18.443497 4.560700 -1.988100 6.194300 -74.952097 5.532368 13.734393 10.757858 -17.003072 -1.675907 -0.792086 -1.645635 1.073471 -7.125000 0.000000 0.000000 75.921172 -2.339714 21.051004 -21.884893 28.343377 -7.270775 0.999410 0.871048 2.498776 7.125000 0.000000 0.000000 
7.837878 18.086312 8.653866 171.060276 -76.549057 -168.735677 -19.940520 -4.990222 -13.696780 0.519971 6.266995 22.532757 -2.431080 10.229883 -7.174254 0.047100 -1.400500 -3.851500 9.363440 24.762188 -19.916377 -5.656388 -11.830216 41.918814 1.321811 -6.181406 1.426839 -0.100300 2.042300 -5.622500 -13.405073 1.996992 15.560683 4.051063 1.134815 -8.789421 13.100913 -5.395843 18.289658 4.620100 -2.060300 6.182900 -74.833038 5.418674 13.650509 10.644049 -16.825076 -1.638278 -0.786812 -1.641282 1.195062 -7.125000 0.000000 0.000000 75.788722 -2.297852 21.084352 -22.129272 28.656012 -7.444939 0.981298 0.880293 1.832101 7.125000 0.000000 0.000000 
7.849926 18.074361 8.662611 168.151974 -76.117034 -166.114954 -20.812549 -4.769535 -13.448911 0.517056 6.191013 22.431312 -2.441261 10.295812 -7.282994 0.044000 -1.354300 -3.724100 8.352260 25.058395 -20.523788 -5.875493 -12.092222 42.801689 1.213383 -5.852012 2.058951 -0.102300 2.062400 -5.678200 -13.788776 1.861422 15.641554 4.471411 1.068194 -8.885553 13.303728 -5.579551 18.096186 4.661700 -2.143000 6.162100 -74.754939 5.296429 13.768643 10.564669 -16.702510 -1.612234 -0.793440 -1.642881 1.278968 -7.125000 0.000000 0.000000 75.656877 -2.243698 20.814590 -22.355729 28.940008 -7.586664 0.966894 0.946078 1.360451 7.125000 0.000000 0.000000 
7.859060 18.062312 8.673493 166.827594 -75.887238 -164.991398 -21.245847 -4.667669 -13.259614 0.506224 6.132324 22.320851 -2.460485 10.372619 -7.333691 0.041600 -1.316700 -3.620600 7.809971 25.296115 -21.030315 -6.075528 -12.305141 43.594078 1.125371 -5.582086 2.505254 -0.103700 2.076500 -5.717000 -13.946479 1.669736 15.767220 4.648983 0.965224 -8.958990 13.681024 -5.730352 17.906420 4.769000 -2.202900 6.144700 -74.676742 5.174449 13.824031 10.471861 -16.563671 -1.583119 -0.800034 -1.630786 1.607276 -7.125000 0.000000 0.000000 75.553163 -2.232720 20.394211 -22.613487 29.256818 -7.750525 0.952858 0.987900 1.222231 7.125000 0.000000 0.000000 
7.863335 18.055122 8.679712 166.897282 -75.707580 -165.174300 -21.304188 -4.466336 -13.209366 0.497496 6.104377 22.257542 -2.448557 10.332706 -7.348248 0.042600 -1.331800 -3.662200 7.650450 25.653245 -21.427162 -6.241238 -12.455557 44.236470 1.035727 -5.292027 2.965649 -0.091900 1.955400 -5.382500 -13.722570 1.461132 15.970647 4.742190 0.863855 -8.978559 14.094371 -5.838560 17.599990 4.900100 -2.245800 6.097300 -74.684016 5.010077 13.585981 10.358914 -16.384557 -1.547047 -0.800236 -1.603698 2.211960 -7.125000 0.000000 0.000000 75.298470 -2.247357 20.231830 -22.862278 29.557070 -7.899019 0.972771 1.018449 0.937897 7.125000 0.000000 0.000000 
7.865667 18.051722 8.683501 166.629215 -75.480601 -165.027743 -21.470420 -4.272888 -13.174301 0.504925 6.102380 22.281094 -2.426997 10.275317 -7.415415 0.042200 -1.325800 -3.645700 7.392280 26.052403 -21.738125 -6.365689 -12.566335 44.721690 0.930845 -4.936218 3.364820 -0.094800 1.985900 -5.466700 -13.705302 1.281305 16.069746 4.854662 0.774188 -9.027131 14.318386 -5.972477 17.518378 4.951400 -2.298900 6.107600 -74.610409 4.852371 13.466541 10.215432 -16.162739 -1.500962 -0.821204 -1.590390 2.690833 -7.125000 0.000000 0.000000 75.155533 -2.316470 19.889876 -23.073052 29.805995 -8.011531 1.003728 1.060633 0.899889 7.125000 0.000000 0.000000 
7.865376 18.048029 8.686611 166.557781 -75.266093 -165.000769 -21.580787 -4.142229 -13.191855 0.511538 6.110218 22.310519 -2.433324 10.312380 -7.480831 0.033100 -1.173800 -3.227000 7.190388 26.408451 -22.073698 -6.456593 -12.644573 45.093523 0.792860 -4.447266 3.669287 -0.116400 2.199700 -6.058000 -13.955801 1.180040 16.019855 4.839843 0.708291 -9.073322 14.622947 -6.173132 17.415589 5.005500 -2.381800 6.101200 -74.294443 4.707087 13.693721 10.033153 -15.893361 -1.446674 -0.838322 -1.585642 2.926498 -7.125000 0.000000 0.000000 75.187828 -2.467238 19.311441 -23.284828 30.050066 -8.126088 1.018000 1.114967 0.794684 7.125000 0.000000 0.000000 
7.864890 18.044143 8.694675 166.763556 -75.110633 -165.229156 -21.606692 -4.146966 -13.171611 0.514812 6.116073 22.326131 -2.456876 10.399097 -7.524065 0.014800 -0.786600 -2.161900 7.059419 26.651223 -22.431612 -6.517442 -12.699267 45.364862 0.625453 -3.848039 4.088970 -0.099400 2.033600 -5.598600 -14.161696 1.072085 16.026238 4.744137 0.631832 -9.101181 15.075047 -6.393372 17.494589 5.105900 -2.457400 6.169900 -73.969617 4.468932 13.823073 9.833055 -15.593574 -1.389057 -0.837127 -1.562343 3.230917 -7.125000 0.000000 0.000000 75.193836 -2.565280 18.651572 -23.499292 30.313942 -8.275360 0.981105 1.133871 0.582529 7.125000 0.000000 0.000000 
7.864307 18.041131 8.703712 166.575620 -75.021502 -165.049267 -21.727250 -4.091935 -13.214190 0.524187 6.121044 22.357143 -2.459517 10.395320 -7.441060 0.010300 -0.655500 -1.801200 6.810303 26.860137 -22.798960 -6.552423 -12.739850 45.544695 0.459267 -3.242303 4.420989 -0.057200 1.542700 -4.243500 -14.129587 0.868625 16.088054 4.771664 0.527978 -9.115253 15.534163 -6.517563 17.588763 5.247100 -2.489400 6.248400 -73.870321 4.150216 13.764300 9.629452 -15.266147 -1.329534 -0.810681 -1.540763 3.478525 -7.125000 0.000000 0.000000 75.027426 -2.600801 18.001549 -23.717214 30.596049 -8.442392 0.934198 1.115067 0.504710 7.125000 0.000000 0.000000 
